<!-- <svg width="141" height="42" xmlns="http://www.w3.org/2000/svg"><g fill="none" fill-rule="evenodd"><path d="M20.513 41.308C9.184 41.308 0 32.061 0 20.654S9.184 0 20.513 0c11.33 0 20.513 9.247 20.513 20.654s-9.184 20.654-20.513 20.654zm.114-9.65c5.973 0 10.816-4.875 10.816-10.89 0-6.014-4.843-10.89-10.816-10.89-5.974 0-10.816 4.876-10.816 10.89 0 6.015 4.842 10.89 10.816 10.89z" fill="#2b2b2b"/><ellipse fill="#FED9CA" cx="134.011" cy="28.518" rx="6.243" ry="6.286"/><path d="M59.143 15.393l5.571-8.572h8.25l-9.643 13.554a138.416 138.416 0 015.84 7.821C70.91 30.732 72.304 33 73.339 35h-8.571l-1.072-2.009a48.997 48.997 0 00-1.446-2.518 72.039 72.039 0 00-1.688-2.625 36.46 36.46 0 00-1.74-2.384 37.058 37.058 0 00-1.635 2.25 52.945 52.945 0 00-1.58 2.491c-.5.84-.99 1.67-1.473 2.491-.482.822-.902 1.59-1.259 2.304h-8.143c.429-.893 1.018-1.946 1.768-3.16.75-1.215 1.562-2.474 2.438-3.777a104.658 104.658 0 012.758-3.911 102.41 102.41 0 012.84-3.67 754.188 754.188 0 01-4.822-6.83c-1.607-2.304-3.196-4.58-4.768-6.83h8.625l5.572 8.57zm17.143 5.732c0-2.5.384-4.687 1.151-6.563.768-1.875 1.777-3.437 3.027-4.687a12.591 12.591 0 014.313-2.84 13.503 13.503 0 015.009-.964c4 0 7.16 1.224 9.482 3.67 2.321 2.447 3.482 6.045 3.482 10.795 0 .464-.018.973-.054 1.526a79.9 79.9 0 01-.107 1.474H84.482c.179 1.643.947 2.946 2.304 3.91 1.357.965 3.178 1.447 5.464 1.447 1.464 0 2.902-.134 4.313-.402 1.41-.268 2.562-.598 3.455-.991l1.071 6.482c-.428.214-1 .429-1.714.643-.714.214-1.509.402-2.384.563-.875.16-1.812.294-2.812.401-1 .107-2 .161-3 .161-2.536 0-4.741-.375-6.617-1.125-1.875-.75-3.428-1.777-4.66-3.08-1.232-1.304-2.143-2.849-2.732-4.634-.59-1.786-.884-3.715-.884-5.786zm18.75-3.054a8.24 8.24 0 00-.349-1.982 4.949 4.949 0 00-.91-1.714 4.85 4.85 0 00-1.554-1.232c-.625-.322-1.402-.482-2.33-.482-.893 0-1.66.151-2.304.455a4.76 4.76 0 00-1.607 1.205 5.37 5.37 0 00-.99 1.742c-.233.66-.403 1.33-.51 2.008h10.554zm30.857-4.178a59.53 59.53 0 00-2.518-.563c-.964-.196-2-.294-3.107-.294-.5 0-1.098.044-1.795.134-.696.089-1.223.187-1.58.294V35h-7.982V8.321c1.428-.5 3.116-.973 5.062-1.42 1.947-.446 4.116-.669 6.51-.669.428 0 .946.027 1.553.08a31.616 31.616 0 013.643.536 8.57 8.57 0 011.553.456l-1.34 6.589z" fill="#2b2b2b" fill-rule="nonzero"/></g></svg> -->
<svg width="220" height="74" viewBox="0 0 220 74" fill="none" xmlns="http://www.w3.org/2000/svg">
<circle cx="214" cy="55" r="6" fill="#FED9CA"/>
<path d="M16.384 56.712C17.792 56.712 19.0293 56.6907 20.096 56.648C21.2053 56.5627 22.1227 56.4347 22.848 56.264V46.344C22.4213 46.1307 21.7173 45.96 20.736 45.832C19.7973 45.6613 18.6453 45.576 17.28 45.576C16.384 45.576 15.424 45.64 14.4 45.768C13.4187 45.896 12.5013 46.1733 11.648 46.6C10.8373 46.984 10.1547 47.5387 9.6 48.264C9.04533 48.9467 8.768 49.864 8.768 51.016C8.768 53.1493 9.45067 54.6427 10.816 55.496C12.1813 56.3067 14.0373 56.712 16.384 56.712ZM15.872 26.888C18.2613 26.888 20.2667 27.208 21.888 27.848C23.552 28.4453 24.8747 29.32 25.856 30.472C26.88 31.5813 27.6053 32.9253 28.032 34.504C28.4587 36.04 28.672 37.7467 28.672 39.624V60.424C28.16 60.5093 27.4347 60.6373 26.496 60.808C25.6 60.936 24.576 61.064 23.424 61.192C22.272 61.32 21.0133 61.4267 19.648 61.512C18.3253 61.64 17.0027 61.704 15.68 61.704C13.8027 61.704 12.0747 61.512 10.496 61.128C8.91733 60.744 7.552 60.1467 6.4 59.336C5.248 58.4827 4.352 57.3733 3.712 56.008C3.072 54.6427 2.752 53 2.752 51.08C2.752 49.2453 3.11467 47.6667 3.84 46.344C4.608 45.0213 5.632 43.9547 6.912 43.144C8.192 42.3333 9.68533 41.736 11.392 41.352C13.0987 40.968 14.8907 40.776 16.768 40.776C17.3653 40.776 17.984 40.8187 18.624 40.904C19.264 40.9467 19.8613 41.032 20.416 41.16C21.0133 41.2453 21.5253 41.3307 21.952 41.416C22.3787 41.5013 22.6773 41.5653 22.848 41.608V39.944C22.848 38.9627 22.7413 38.0027 22.528 37.064C22.3147 36.0827 21.9307 35.2293 21.376 34.504C20.8213 33.736 20.0533 33.1387 19.072 32.712C18.1333 32.2427 16.896 32.008 15.36 32.008C13.3973 32.008 11.6693 32.1573 10.176 32.456C8.72533 32.712 7.63733 32.9893 6.912 33.288L6.208 28.36C6.976 28.0187 8.256 27.6987 10.048 27.4C11.84 27.0587 13.7813 26.888 15.872 26.888ZM38.5575 28.68C39.9228 28.3387 41.7362 27.976 43.9975 27.592C46.2588 27.208 48.8615 27.016 51.8055 27.016C54.4508 27.016 56.6482 27.4 58.3975 28.168C60.1468 28.8933 61.5335 29.9387 62.5575 31.304C63.6242 32.6267 64.3708 34.2267 64.7975 36.104C65.2242 37.9813 65.4375 40.0507 65.4375 42.312V61H59.4855V43.592C59.4855 41.544 59.3362 39.7947 59.0375 38.344C58.7815 36.8933 58.3335 35.72 57.6935 34.824C57.0535 33.928 56.2002 33.288 55.1335 32.904C54.0668 32.4773 52.7442 32.264 51.1655 32.264C50.5255 32.264 49.8642 32.2853 49.1815 32.328C48.4988 32.3707 47.8375 32.4347 47.1975 32.52C46.6002 32.5627 46.0455 32.6267 45.5335 32.712C45.0642 32.7973 44.7228 32.8613 44.5095 32.904V61H38.5575V28.68ZM101.804 60.04C100.438 60.3813 98.6248 60.744 96.3635 61.128C94.1448 61.512 91.5635 61.704 88.6195 61.704C86.0595 61.704 83.9048 61.3413 82.1555 60.616C80.4062 59.848 78.9982 58.7813 77.9315 57.416C76.8648 56.0507 76.0968 54.4507 75.6275 52.616C75.1582 50.7387 74.9235 48.6693 74.9235 46.408V27.72H80.8755V45.128C80.8755 49.1813 81.5155 52.0827 82.7955 53.832C84.0755 55.5813 86.2302 56.456 89.2595 56.456C89.8995 56.456 90.5608 56.4347 91.2435 56.392C91.9262 56.3493 92.5662 56.3067 93.1635 56.264C93.7608 56.1787 94.2942 56.1147 94.7635 56.072C95.2755 55.9867 95.6382 55.9013 95.8515 55.816V27.72H101.804V60.04ZM119.802 56.712C122.234 56.712 124.026 56.392 125.178 55.752C126.372 55.112 126.97 54.088 126.97 52.68C126.97 51.2293 126.394 50.0773 125.242 49.224C124.09 48.3707 122.191 47.4107 119.546 46.344C118.266 45.832 117.028 45.32 115.834 44.808C114.682 44.2533 113.679 43.6133 112.826 42.888C111.972 42.1627 111.29 41.288 110.778 40.264C110.266 39.24 110.01 37.9813 110.01 36.488C110.01 33.544 111.098 31.2187 113.274 29.512C115.45 27.7627 118.415 26.888 122.17 26.888C123.108 26.888 124.047 26.952 124.986 27.08C125.924 27.1653 126.799 27.2933 127.61 27.464C128.42 27.592 129.124 27.7413 129.722 27.912C130.362 28.0827 130.852 28.232 131.194 28.36L130.106 33.48C129.466 33.1387 128.463 32.7973 127.098 32.456C125.732 32.072 124.09 31.88 122.17 31.88C120.506 31.88 119.055 32.2213 117.818 32.904C116.58 33.544 115.962 34.568 115.962 35.976C115.962 36.7013 116.09 37.3413 116.345 37.896C116.644 38.4507 117.071 38.9627 117.626 39.432C118.223 39.8587 118.948 40.264 119.802 40.648C120.655 41.032 121.679 41.4373 122.874 41.864C124.452 42.4613 125.86 43.0587 127.098 43.656C128.335 44.2107 129.38 44.872 130.234 45.64C131.13 46.408 131.812 47.3467 132.282 48.456C132.751 49.5227 132.986 50.8453 132.986 52.424C132.986 55.496 131.834 57.8213 129.53 59.4C127.268 60.9787 124.026 61.768 119.802 61.768C116.858 61.768 114.554 61.512 112.89 61C111.226 60.5307 110.095 60.168 109.498 59.912L110.586 54.792C111.268 55.048 112.356 55.432 113.85 55.944C115.343 56.456 117.327 56.712 119.802 56.712ZM140.62 61V12.36L146.572 11.336V28.36C147.681 27.9333 148.855 27.6133 150.092 27.4C151.372 27.144 152.631 27.016 153.868 27.016C156.513 27.016 158.711 27.4 160.46 28.168C162.209 28.8933 163.596 29.9387 164.62 31.304C165.687 32.6267 166.433 34.2267 166.86 36.104C167.287 37.9813 167.5 40.0507 167.5 42.312V61H161.548V43.592C161.548 41.544 161.399 39.7947 161.1 38.344C160.844 36.8933 160.396 35.72 159.756 34.824C159.116 33.928 158.263 33.288 157.196 32.904C156.129 32.4773 154.807 32.264 153.228 32.264C152.588 32.264 151.927 32.3067 151.244 32.392C150.561 32.4773 149.9 32.584 149.26 32.712C148.663 32.7973 148.108 32.904 147.596 33.032C147.127 33.16 146.785 33.2667 146.572 33.352V61H140.62ZM188.447 56.712C189.855 56.712 191.092 56.6907 192.159 56.648C193.268 56.5627 194.185 56.4347 194.911 56.264V46.344C194.484 46.1307 193.78 45.96 192.799 45.832C191.86 45.6613 190.708 45.576 189.343 45.576C188.447 45.576 187.487 45.64 186.463 45.768C185.481 45.896 184.564 46.1733 183.711 46.6C182.9 46.984 182.217 47.5387 181.663 48.264C181.108 48.9467 180.831 49.864 180.831 51.016C180.831 53.1493 181.513 54.6427 182.879 55.496C184.244 56.3067 186.1 56.712 188.447 56.712ZM187.935 26.888C190.324 26.888 192.329 27.208 193.951 27.848C195.615 28.4453 196.937 29.32 197.919 30.472C198.943 31.5813 199.668 32.9253 200.095 34.504C200.521 36.04 200.735 37.7467 200.735 39.624V60.424C200.223 60.5093 199.497 60.6373 198.559 60.808C197.663 60.936 196.639 61.064 195.487 61.192C194.335 61.32 193.076 61.4267 191.711 61.512C190.388 61.64 189.065 61.704 187.743 61.704C185.865 61.704 184.137 61.512 182.559 61.128C180.98 60.744 179.615 60.1467 178.463 59.336C177.311 58.4827 176.415 57.3733 175.775 56.008C175.135 54.6427 174.815 53 174.815 51.08C174.815 49.2453 175.177 47.6667 175.903 46.344C176.671 45.0213 177.695 43.9547 178.975 43.144C180.255 42.3333 181.748 41.736 183.455 41.352C185.161 40.968 186.953 40.776 188.831 40.776C189.428 40.776 190.047 40.8187 190.687 40.904C191.327 40.9467 191.924 41.032 192.479 41.16C193.076 41.2453 193.588 41.3307 194.015 41.416C194.441 41.5013 194.74 41.5653 194.911 41.608V39.944C194.911 38.9627 194.804 38.0027 194.591 37.064C194.377 36.0827 193.993 35.2293 193.439 34.504C192.884 33.736 192.116 33.1387 191.135 32.712C190.196 32.2427 188.959 32.008 187.423 32.008C185.46 32.008 183.732 32.1573 182.239 32.456C180.788 32.712 179.7 32.9893 178.975 33.288L178.271 28.36C179.039 28.0187 180.319 27.6987 182.111 27.4C183.903 27.0587 185.844 26.888 187.935 26.888Z" fill="black"/>
</svg>