<!-- <svg width="50" height="39" xmlns="http://www.w3.org/2000/svg"><g fill="none" fill-rule="evenodd"><path d="M19.146 38.554C8.572 38.554 0 29.924 0 19.277 0 8.631 8.572 0 19.146 0 29.72 0 38.29 8.63 38.29 19.277s-8.57 19.277-19.144 19.277zm.106-9.006c5.575 0 10.095-4.55 10.095-10.164S24.827 9.219 19.252 9.219c-5.576 0-10.095 4.551-10.095 10.165 0 5.613 4.52 10.164 10.095 10.164z" fill="#2b2b2b"/><ellipse fill="#FED9CA" cx="43.827" cy="32.867" rx="5.827" ry="5.867"/></g></svg> -->
<svg width="48" height="74" viewBox="0 0 48 74" fill="none" xmlns="http://www.w3.org/2000/svg">
<path d="M16.384 56.712C17.792 56.712 19.0293 56.6907 20.096 56.648C21.2053 56.5627 22.1227 56.4347 22.848 56.264V46.344C22.4213 46.1307 21.7173 45.96 20.736 45.832C19.7973 45.6613 18.6453 45.576 17.28 45.576C16.384 45.576 15.424 45.64 14.4 45.768C13.4187 45.896 12.5013 46.1733 11.648 46.6C10.8373 46.984 10.1547 47.5387 9.6 48.264C9.04533 48.9467 8.768 49.864 8.768 51.016C8.768 53.1493 9.45067 54.6427 10.816 55.496C12.1813 56.3067 14.0373 56.712 16.384 56.712ZM15.872 26.888C18.2613 26.888 20.2667 27.208 21.888 27.848C23.552 28.4453 24.8747 29.32 25.856 30.472C26.88 31.5813 27.6053 32.9253 28.032 34.504C28.4587 36.04 28.672 37.7467 28.672 39.624V60.424C28.16 60.5093 27.4347 60.6373 26.496 60.808C25.6 60.936 24.576 61.064 23.424 61.192C22.272 61.32 21.0133 61.4267 19.648 61.512C18.3253 61.64 17.0027 61.704 15.68 61.704C13.8027 61.704 12.0747 61.512 10.496 61.128C8.91733 60.744 7.552 60.1467 6.4 59.336C5.248 58.4827 4.352 57.3733 3.712 56.008C3.072 54.6427 2.752 53 2.752 51.08C2.752 49.2453 3.11467 47.6667 3.84 46.344C4.608 45.0213 5.632 43.9547 6.912 43.144C8.192 42.3333 9.68533 41.736 11.392 41.352C13.0987 40.968 14.8907 40.776 16.768 40.776C17.3653 40.776 17.984 40.8187 18.624 40.904C19.264 40.9467 19.8613 41.032 20.416 41.16C21.0133 41.2453 21.5253 41.3307 21.952 41.416C22.3787 41.5013 22.6773 41.5653 22.848 41.608V39.944C22.848 38.9627 22.7413 38.0027 22.528 37.064C22.3147 36.0827 21.9307 35.2293 21.376 34.504C20.8213 33.736 20.0533 33.1387 19.072 32.712C18.1333 32.2427 16.896 32.008 15.36 32.008C13.3973 32.008 11.6693 32.1573 10.176 32.456C8.72533 32.712 7.63733 32.9893 6.912 33.288L6.208 28.36C6.976 28.0187 8.256 27.6987 10.048 27.4C11.84 27.0587 13.7813 26.888 15.872 26.888Z" fill="black"/>
<circle cx="42" cy="55" r="6" fill="#FED9CA"/>
</svg>